<svg xmlns:xlink="http://www.w3.org/1999/xlink" width="240" xmlns="http://www.w3.org/2000/svg" style="-webkit-print-color-adjust:exact" id="screenshot-af9b1b05-05f9-80a0-8002-a6273fc0d9a9" version="1.1" viewBox="1553.053 149.086 406.275 412.213" height="260">
  <g id="shape-af9b1b05-05f9-80a0-8002-a6273fc0d9a9" style="fill:#555555">
    <g class="fills" id="fills-af9b1b05-05f9-80a0-8002-a6273fc0d9a9">
      <path rx="0" ry="0" d="M1873.183,320.383L1873.183,320.383ZC1879.791,328.539,1880.909,339.845,1876.027,349.137L1844.211,425.157C1842.207,429.917,1842.480,433.331,1843.564,434.481L1880.467,473.617C1883.909,477.267,1883.740,483.016,1880.090,486.457C1876.440,489.899,1870.692,489.730,1867.250,486.080L1830.347,446.944C1823.691,438.791,1822.551,427.450,1827.453,418.136L1859.319,342.170C1861.323,337.384,1861.100,334.049,1859.966,332.846L1859.966,332.846C1858.869,331.683,1855.618,331.227,1850.815,332.885L1668.310,395.560C1658.787,399.855,1647.615,397.995,1639.996,390.847L1639.996,390.847C1633.389,382.670,1632.281,371.345,1637.179,362.042L1669.125,286.001C1671.045,281.444,1670.906,277.854,1669.784,276.665L1632.046,236.642C1628.604,232.993,1628.773,227.244,1632.423,223.802C1636.073,220.361,1641.822,220.529,1645.263,224.179L1682.952,264.149C1689.611,272.317,1690.735,283.678,1685.806,292.994L1653.860,369.035C1651.856,373.821,1652.092,377.169,1653.213,378.384L1653.213,378.384C1654.310,379.547,1657.574,379.990,1662.364,378.345L1844.906,315.710C1854.421,311.491,1865.532,313.328,1873.183,320.383ZZ">
      </path>
    </g>
  </g>
  <g id="shape-af9b1b05-05f9-80a0-8002-a6260af9edd9" style="fill:#555555" rx="0" ry="0">
    <g id="shape-af9b1b05-05f9-80a0-8002-a6260afdd3b9">
      <g class="fills" id="fills-af9b1b05-05f9-80a0-8002-a6260afdd3b9">
        <path rx="0" ry="0" d="M1836.618,290.147C1833.008,291.461,1829.296,289.419,1826.021,287.610C1824.334,286.494,1822.448,285.714,1820.467,285.311C1818.358,285.528,1816.311,286.153,1814.441,287.153C1811.329,289.149,1807.511,289.717,1803.953,288.714C1800.897,286.632,1798.879,283.342,1798.407,279.676C1797.969,277.601,1797.132,275.632,1795.944,273.876C1794.362,272.617,1792.552,271.674,1790.613,271.099C1787.131,269.750,1783.173,268.226,1781.858,264.612C1780.543,260.999,1782.587,257.291,1784.395,254.016C1785.512,252.328,1786.292,250.441,1786.693,248.457C1786.475,246.350,1785.850,244.305,1784.853,242.436C1782.856,239.324,1782.288,235.506,1783.291,231.948C1785.367,228.884,1788.656,226.856,1792.325,226.376C1794.400,225.950,1796.372,225.124,1798.130,223.943C1799.390,222.363,1800.334,220.554,1800.909,218.616C1802.259,215.133,1803.786,211.175,1807.396,209.861C1811.005,208.547,1814.716,210.586,1817.992,212.398C1819.680,213.515,1821.567,214.295,1823.551,214.696C1825.657,214.478,1827.700,213.854,1829.568,212.857C1832.688,210.868,1836.510,210.308,1840.070,211.319C1843.134,213.393,1845.163,216.682,1845.641,220.352C1846.078,222.424,1846.914,224.390,1848.101,226.143C1849.682,227.405,1851.493,228.350,1853.433,228.925C1856.916,230.274,1860.874,231.802,1862.188,235.411C1863.502,239.021,1861.460,242.733,1859.651,246.008C1858.537,247.694,1857.757,249.580,1857.356,251.561C1857.574,253.668,1858.199,255.713,1859.196,257.582C1861.189,260.701,1861.749,264.524,1860.735,268.083C1858.652,271.137,1855.363,273.155,1851.696,273.629C1849.624,274.067,1847.656,274.903,1845.901,276.090C1844.641,277.673,1843.696,279.483,1843.120,281.423C1841.758,284.883,1840.247,288.826,1836.618,290.147ZZM1815.793,281.957C1817.335,281.330,1818.986,281.013,1820.651,281.024C1823.303,281.407,1825.837,282.372,1828.073,283.849C1830.667,285.280,1833.351,286.755,1835.129,286.108C1836.908,285.461,1838.015,282.605,1839.087,279.840C1839.848,277.271,1841.170,274.903,1842.956,272.906C1845.164,271.229,1847.716,270.063,1850.428,269.492C1853.198,268.671,1856.062,267.830,1856.801,266.259C1857.540,264.688,1856.347,261.939,1855.181,259.299C1853.877,256.852,1853.129,254.147,1852.992,251.377C1853.375,248.726,1854.338,246.193,1855.813,243.957C1857.243,241.363,1858.719,238.679,1858.072,236.900C1857.424,235.122,1854.569,234.015,1851.805,232.947C1849.238,232.183,1846.871,230.861,1844.875,229.076C1843.200,226.867,1842.034,224.316,1841.461,221.604C1840.642,218.838,1839.796,215.976,1838.228,215.231C1836.660,214.487,1833.907,215.681,1831.268,216.851C1828.822,218.155,1826.119,218.902,1823.351,219.039C1820.699,218.657,1818.165,217.694,1815.930,216.218C1813.336,214.787,1810.652,213.312,1808.874,213.959C1807.095,214.606,1805.988,217.462,1804.920,220.225C1804.156,222.792,1802.834,225.159,1801.049,227.156C1798.837,228.827,1796.285,229.993,1793.573,230.571C1790.811,231.389,1787.949,232.234,1787.201,233.804C1786.452,235.373,1787.657,238.118,1788.819,240.760C1790.111,243.199,1790.848,245.894,1790.979,248.651C1790.597,251.303,1789.632,253.838,1788.154,256.073C1786.723,258.667,1785.249,261.355,1785.895,263.130C1786.541,264.904,1789.398,266.015,1792.163,267.087C1794.731,267.850,1797.099,269.172,1799.097,270.957C1800.774,273.167,1801.941,275.722,1802.514,278.436C1803.335,281.207,1804.180,284.069,1805.747,284.809C1807.313,285.550,1810.059,284.359,1812.707,283.189C1813.744,282.789,1814.764,282.331,1815.793,281.957ZZ">
        </path>
      </g>
    </g>
    <g id="shape-af9b1b05-05f9-80a0-8002-a6260afee27e">
      <g class="fills" id="fills-af9b1b05-05f9-80a0-8002-a6260afee27e">
        <path rx="0" ry="0" d="M1834.292,252.388C1835.898,256.842,1833.606,261.757,1829.162,263.389L1830.645,267.462C1831.022,268.568,1830.446,269.773,1829.347,270.172C1828.820,270.374,1828.234,270.356,1827.720,270.123C1827.206,269.889,1826.807,269.460,1826.612,268.930L1825.129,264.857L1820.088,266.692C1818.975,267.097,1817.743,266.523,1817.338,265.409C1816.932,264.296,1817.507,263.064,1818.620,262.659L1827.694,259.356C1829.922,258.546,1831.070,256.083,1830.259,253.856C1829.449,251.628,1826.986,250.480,1824.759,251.291L1820.726,252.759C1816.271,254.380,1811.346,252.083,1809.724,247.629C1808.103,243.174,1810.400,238.248,1814.854,236.627L1813.318,232.405C1813.152,231.886,1813.202,231.323,1813.456,230.841C1813.711,230.360,1814.147,230.000,1814.669,229.844C1815.707,229.414,1816.898,229.895,1817.346,230.925L1818.887,235.159L1823.928,233.325C1825.042,232.919,1826.273,233.493,1826.679,234.607C1827.064,235.720,1826.496,236.937,1825.396,237.357L1816.322,240.660C1814.095,241.471,1812.947,243.933,1813.757,246.161C1814.568,248.388,1817.031,249.536,1819.258,248.726L1823.291,247.258C1827.745,245.637,1832.671,247.933,1834.292,252.388ZZ">
        </path>
      </g>
    </g>
  </g>
</svg>